<svg xmlns="http://www.w3.org/2000/svg" xmlns:xlink="http://www.w3.org/1999/xlink" width="500" zoomAndPan="magnify" viewBox="0 0 375 374.999991" height="500" preserveAspectRatio="xMidYMid meet" version="1.0"><defs><clipPath id="2cc0790448"><path d="M 13.40625 0 L 361.40625 0 L 361.40625 375 L 13.40625 375 Z M 13.40625 0 " clip-rule="nonzero"/></clipPath></defs><path fill="#231f20" d="M 213.648438 212.472656 L 217.347656 212.472656 L 210.140625 177.683594 L 208.003906 177.683594 L 208.710938 191.839844 L 213.648438 212.472656 " fill-opacity="1" fill-rule="nonzero"/><path fill="#231f20" d="M 213.648438 212.472656 L 213.648438 213.667969 L 217.347656 213.667969 C 217.707031 213.667969 218.050781 213.503906 218.277344 213.222656 C 218.503906 212.949219 218.589844 212.578125 218.519531 212.226562 L 211.308594 177.445312 C 211.199219 176.886719 210.707031 176.492188 210.140625 176.492188 L 208.003906 176.492188 C 207.671875 176.492188 207.363281 176.621094 207.132812 176.859375 C 206.910156 177.097656 206.792969 177.417969 206.804688 177.742188 L 207.511719 191.902344 L 207.546875 192.121094 L 212.488281 212.746094 C 212.613281 213.285156 213.097656 213.667969 213.648438 213.667969 L 213.648438 212.472656 L 214.8125 212.191406 L 209.902344 191.671875 L 209.261719 178.878906 L 210.140625 178.878906 L 210.140625 177.683594 L 208.96875 177.925781 L 215.878906 211.273438 L 213.648438 211.273438 L 213.648438 212.472656 L 214.8125 212.191406 L 213.648438 212.472656 " fill-opacity="1" fill-rule="nonzero"/><path fill="#231f20" d="M 210.433594 212.472656 L 209.566406 208.8125 L 209.738281 212.472656 Z M 210.433594 212.472656 " fill-opacity="1" fill-rule="nonzero"/><path fill="#231f20" d="M 210.433594 212.472656 L 211.601562 212.191406 L 210.730469 208.535156 C 210.585938 207.9375 210.011719 207.539062 209.398438 207.628906 C 208.785156 207.714844 208.339844 208.253906 208.367188 208.871094 L 208.542969 212.527344 C 208.574219 213.164062 209.097656 213.667969 209.738281 213.667969 L 210.433594 213.667969 C 210.800781 213.667969 211.144531 213.5 211.371094 213.210938 C 211.601562 212.925781 211.683594 212.550781 211.601562 212.191406 L 210.433594 212.472656 L 210.433594 211.273438 L 209.738281 211.273438 L 209.738281 212.472656 L 210.9375 212.410156 L 210.757812 208.753906 L 209.566406 208.8125 L 208.402344 209.085938 L 209.265625 212.746094 L 210.433594 212.472656 L 210.433594 211.273438 L 210.433594 212.472656 " fill-opacity="1" fill-rule="nonzero"/><path fill="#231f20" d="M 219.097656 284.277344 C 223.378906 283.933594 226.582031 280.171875 226.238281 275.871094 L 224.917969 259.726562 L 224.875 259.726562 C 224.875 260.4375 224.421875 261.078125 223.71875 261.25 C 222.875 261.445312 222.035156 260.925781 221.832031 260.101562 L 221.738281 259.726562 L 212.113281 259.726562 L 213.25 282.300781 C 214.785156 283.675781 216.871094 284.464844 219.097656 284.277344 " fill-opacity="1" fill-rule="nonzero"/><path fill="#231f20" d="M 219.097656 284.277344 L 219.195312 285.46875 C 223.890625 285.085938 227.457031 281.15625 227.460938 276.511719 C 227.460938 276.265625 227.453125 276.023438 227.429688 275.773438 L 226.113281 259.632812 C 226.058594 259.007812 225.539062 258.53125 224.917969 258.53125 L 224.875 258.53125 C 224.558594 258.53125 224.253906 258.65625 224.03125 258.878906 C 223.804688 259.109375 223.679688 259.410156 223.679688 259.726562 L 223.605469 259.972656 L 223.425781 260.085938 L 223.4375 260.085938 L 223.355469 260.09375 C 223.1875 260.09375 223.03125 259.976562 222.996094 259.820312 L 222.902344 259.445312 C 222.773438 258.90625 222.296875 258.53125 221.738281 258.53125 L 212.113281 258.53125 C 211.785156 258.53125 211.472656 258.664062 211.25 258.902344 C 211.019531 259.140625 210.902344 259.460938 210.917969 259.785156 L 212.054688 282.363281 C 212.066406 282.679688 212.210938 282.980469 212.449219 283.195312 C 214.046875 284.621094 216.160156 285.503906 218.449219 285.503906 C 218.699219 285.503906 218.945312 285.492188 219.203125 285.46875 L 219.195312 285.46875 L 219.097656 284.277344 L 218.988281 283.085938 C 218.816406 283.101562 218.636719 283.109375 218.449219 283.109375 C 216.78125 283.109375 215.230469 282.464844 214.046875 281.414062 L 213.25 282.300781 L 214.441406 282.242188 L 213.371094 260.921875 L 221.738281 260.921875 L 221.738281 259.726562 L 220.578125 260.011719 L 220.667969 260.386719 C 220.980469 261.648438 222.105469 262.488281 223.355469 262.488281 C 223.570312 262.488281 223.785156 262.464844 223.992188 262.414062 L 224.003906 262.414062 C 224.628906 262.257812 225.167969 261.886719 225.523438 261.402344 C 225.878906 260.921875 226.074219 260.339844 226.074219 259.726562 L 224.875 259.726562 L 224.875 260.921875 L 224.917969 260.921875 L 224.917969 259.726562 L 223.722656 259.824219 L 225.046875 275.96875 C 225.058594 276.152344 225.070312 276.332031 225.070312 276.511719 C 225.070312 279.914062 222.441406 282.8125 219 283.085938 L 218.988281 283.085938 L 219.097656 284.277344 " fill-opacity="1" fill-rule="nonzero"/><path fill="#231f20" d="M 220.535156 220.234375 C 219.710938 220.417969 218.871094 219.859375 218.695312 219.019531 L 218.632812 218.703125 L 215.128906 218.703125 L 223.464844 253.496094 L 224.410156 253.496094 L 221.632812 219.328125 C 221.429688 219.769531 221.054688 220.128906 220.535156 220.234375 " fill-opacity="1" fill-rule="nonzero"/><path fill="#231f20" d="M 220.535156 220.234375 L 220.28125 219.066406 L 220.21875 219.074219 C 220.082031 219.085938 219.890625 218.945312 219.867188 218.777344 L 218.695312 219.019531 L 219.867188 218.789062 L 219.808594 218.46875 C 219.695312 217.90625 219.199219 217.503906 218.632812 217.503906 L 215.128906 217.503906 C 214.761719 217.503906 214.421875 217.667969 214.191406 217.957031 C 213.960938 218.25 213.882812 218.621094 213.964844 218.976562 L 222.296875 253.777344 C 222.425781 254.3125 222.90625 254.691406 223.464844 254.691406 L 224.410156 254.691406 C 224.742188 254.691406 225.0625 254.550781 225.289062 254.308594 C 225.515625 254.0625 225.628906 253.734375 225.605469 253.402344 L 222.828125 219.230469 C 222.78125 218.6875 222.378906 218.242188 221.839844 218.152344 C 221.304688 218.058594 220.769531 218.335938 220.546875 218.832031 C 220.460938 218.992188 220.390625 219.042969 220.292969 219.0625 L 220.28125 219.066406 L 220.535156 220.234375 L 220.785156 221.410156 C 221.726562 221.210938 222.402344 220.546875 222.722656 219.824219 L 221.632812 219.328125 L 220.4375 219.425781 L 223.214844 253.59375 L 224.410156 253.496094 L 224.410156 252.300781 L 216.652344 219.898438 L 218.632812 219.898438 L 218.632812 218.703125 L 217.453125 218.929688 L 217.519531 219.253906 L 217.523438 219.265625 C 217.800781 220.5625 218.921875 221.460938 220.21875 221.46875 C 220.421875 221.46875 220.613281 221.445312 220.796875 221.402344 L 220.535156 220.234375 L 220.785156 221.410156 L 220.535156 220.234375 " fill-opacity="1" fill-rule="nonzero"/><path fill="#231f20" d="M 220.257812 253.496094 L 211.925781 218.703125 L 210.058594 218.703125 L 211.804688 253.496094 L 220.257812 253.496094 " fill-opacity="1" fill-rule="nonzero"/><path fill="#231f20" d="M 220.257812 253.496094 L 221.421875 253.21875 L 213.089844 218.421875 C 212.964844 217.882812 212.480469 217.503906 211.925781 217.503906 L 210.058594 217.503906 C 209.730469 217.503906 209.414062 217.636719 209.191406 217.875 C 208.96875 218.113281 208.84375 218.429688 208.863281 218.757812 L 210.609375 253.554688 C 210.640625 254.195312 211.164062 254.691406 211.804688 254.691406 L 220.257812 254.691406 C 220.625 254.691406 220.96875 254.527344 221.195312 254.238281 C 221.425781 253.949219 221.503906 253.574219 221.421875 253.21875 L 220.257812 253.496094 L 220.257812 252.300781 L 212.945312 252.300781 L 211.320312 219.898438 L 211.925781 219.898438 L 211.925781 218.703125 L 210.761719 218.976562 L 219.09375 253.777344 L 220.257812 253.496094 L 220.257812 252.300781 L 220.257812 253.496094 " fill-opacity="1" fill-rule="nonzero"/><path fill="#231f20" d="M 217.722656 171.441406 L 216.84375 160.632812 C 216.773438 159.738281 216.492188 158.925781 216.082031 158.191406 L 217.304688 171.441406 L 217.722656 171.441406 " fill-opacity="1" fill-rule="nonzero"/><path fill="#231f20" d="M 217.722656 171.441406 L 218.914062 171.34375 L 218.035156 160.539062 L 218.035156 160.542969 C 217.949219 159.453125 217.605469 158.464844 217.121094 157.609375 C 216.847656 157.117188 216.261719 156.882812 215.726562 157.050781 C 215.1875 157.21875 214.835938 157.742188 214.886719 158.304688 L 216.117188 171.550781 C 216.171875 172.167969 216.6875 172.640625 217.304688 172.640625 L 217.722656 172.640625 C 218.054688 172.640625 218.371094 172.5 218.601562 172.25 C 218.824219 172.007812 218.9375 171.675781 218.914062 171.34375 L 217.722656 171.441406 L 217.722656 170.246094 L 217.304688 170.246094 L 217.304688 171.441406 L 218.496094 171.332031 L 217.273438 158.085938 L 216.082031 158.191406 L 215.039062 158.78125 C 215.378906 159.382812 215.59375 160.027344 215.644531 160.726562 L 215.648438 160.730469 L 216.523438 171.539062 L 217.722656 171.441406 L 217.722656 170.246094 L 217.722656 171.441406 " fill-opacity="1" fill-rule="nonzero"/><path fill="#231f20" d="M 214.769531 177.816406 L 214.757812 177.683594 L 213.332031 177.683594 L 220.527344 212.472656 L 221.074219 212.472656 L 218.230469 177.683594 L 217.871094 177.683594 C 217.871094 178.472656 217.28125 179.15625 216.464844 179.234375 C 215.640625 179.285156 214.851562 178.6875 214.769531 177.816406 " fill-opacity="1" fill-rule="nonzero"/><path fill="#231f20" d="M 214.769531 177.816406 L 215.964844 177.707031 L 215.949219 177.570312 C 215.894531 176.957031 215.375 176.492188 214.757812 176.492188 L 213.332031 176.492188 C 212.96875 176.492188 212.628906 176.648438 212.398438 176.929688 C 212.175781 177.210938 212.085938 177.574219 212.15625 177.925781 L 219.355469 212.710938 C 219.46875 213.265625 219.957031 213.667969 220.527344 213.667969 L 221.074219 213.667969 C 221.40625 213.667969 221.726562 213.523438 221.953125 213.28125 C 222.179688 213.035156 222.289062 212.707031 222.265625 212.375 L 219.425781 177.589844 C 219.371094 176.96875 218.851562 176.492188 218.230469 176.492188 L 217.871094 176.492188 C 217.546875 176.492188 217.25 176.613281 217.023438 176.835938 C 216.796875 177.066406 216.675781 177.363281 216.675781 177.683594 C 216.664062 177.875 216.542969 178.023438 216.347656 178.042969 L 216.464844 179.234375 L 216.382812 178.039062 L 216.359375 178.042969 L 216.085938 177.933594 L 215.964844 177.707031 L 213.578125 177.929688 C 213.648438 178.667969 214.011719 179.3125 214.519531 179.742188 C 215.023438 180.179688 215.667969 180.429688 216.359375 180.4375 L 216.546875 180.425781 L 216.585938 180.425781 C 218.019531 180.28125 219.074219 179.070312 219.070312 177.683594 L 217.871094 177.683594 L 217.871094 178.878906 L 218.230469 178.878906 L 218.230469 177.683594 L 217.035156 177.78125 L 219.878906 212.566406 L 221.074219 212.472656 L 221.074219 211.273438 L 220.527344 211.273438 L 220.527344 212.472656 L 221.695312 212.226562 L 214.5 177.445312 L 213.332031 177.683594 L 213.332031 178.878906 L 214.757812 178.878906 L 214.757812 177.683594 L 213.5625 177.800781 L 213.578125 177.933594 L 214.769531 177.816406 " fill-opacity="1" fill-rule="nonzero"/><path fill="#231f20" d="M 207.679688 171.441406 L 208.84375 171.441406 L 207.320312 164.0625 Z M 207.679688 171.441406 " fill-opacity="1" fill-rule="nonzero"/><path fill="#231f20" d="M 207.679688 171.441406 L 207.679688 172.640625 L 208.84375 172.640625 C 209.207031 172.640625 209.546875 172.476562 209.769531 172.195312 C 210 171.917969 210.089844 171.550781 210.019531 171.199219 L 208.496094 163.824219 C 208.367188 163.210938 207.792969 162.800781 207.171875 162.875 C 206.554688 162.953125 206.09375 163.496094 206.128906 164.125 L 206.484375 171.5 C 206.515625 172.140625 207.039062 172.640625 207.679688 172.640625 L 207.679688 171.441406 L 208.878906 171.382812 L 208.519531 164.007812 L 207.320312 164.0625 L 206.152344 164.304688 L 207.671875 171.6875 L 208.84375 171.441406 L 208.84375 170.246094 L 207.679688 170.246094 L 207.679688 171.441406 L 208.878906 171.382812 L 207.679688 171.441406 " fill-opacity="1" fill-rule="nonzero"/><path fill="#231f20" d="M 210.566406 155.136719 C 209.921875 155.164062 209.308594 155.320312 208.738281 155.535156 L 212.035156 171.441406 L 214.171875 171.441406 L 212.691406 155.414062 C 212.019531 155.207031 211.316406 155.097656 210.566406 155.136719 " fill-opacity="1" fill-rule="nonzero"/><path fill="#231f20" d="M 210.566406 155.136719 L 210.515625 153.941406 C 209.707031 153.976562 208.972656 154.171875 208.316406 154.414062 C 207.765625 154.625 207.445312 155.199219 207.5625 155.78125 L 210.859375 171.6875 C 210.972656 172.242188 211.464844 172.640625 212.035156 172.640625 L 214.171875 172.640625 C 214.507812 172.640625 214.832031 172.5 215.054688 172.246094 C 215.285156 172 215.398438 171.667969 215.363281 171.332031 L 213.882812 155.308594 C 213.835938 154.832031 213.507812 154.425781 213.050781 154.273438 C 212.371094 154.058594 211.640625 153.933594 210.871094 153.933594 C 210.75 153.933594 210.632812 153.9375 210.519531 153.941406 L 210.515625 153.941406 L 210.566406 155.136719 L 210.613281 156.332031 L 210.871094 156.328125 C 211.375 156.328125 211.851562 156.40625 212.324219 156.554688 L 212.691406 155.414062 L 211.496094 155.527344 L 212.859375 170.246094 L 212.035156 170.246094 L 212.035156 171.441406 L 213.203125 171.199219 L 209.910156 155.292969 L 208.738281 155.535156 L 209.160156 156.660156 C 209.648438 156.472656 210.140625 156.351562 210.617188 156.332031 L 210.613281 156.332031 L 210.566406 155.136719 " fill-opacity="1" fill-rule="nonzero"/><path fill="#231f20" d="M 150.007812 259.726562 L 148.691406 275.871094 C 148.34375 280.171875 151.535156 283.933594 155.832031 284.277344 C 158.035156 284.453125 160.078125 283.703125 161.613281 282.359375 L 162.75 259.726562 L 152.792969 259.726562 L 152.722656 260.007812 C 152.5625 260.632812 151.921875 261.035156 151.304688 260.875 C 150.777344 260.742188 150.425781 260.261719 150.441406 259.726562 L 150.007812 259.726562 " fill-opacity="1" fill-rule="nonzero"/><path fill="#231f20" d="M 150.007812 259.726562 L 148.816406 259.632812 L 147.5 275.777344 C 147.480469 276.023438 147.464844 276.265625 147.46875 276.511719 C 147.464844 281.15625 151.027344 285.09375 155.734375 285.46875 C 155.976562 285.488281 156.214844 285.5 156.457031 285.5 C 158.71875 285.503906 160.808594 284.660156 162.402344 283.253906 C 162.644531 283.039062 162.789062 282.742188 162.808594 282.417969 L 163.941406 259.785156 C 163.960938 259.460938 163.839844 259.140625 163.613281 258.902344 C 163.382812 258.664062 163.074219 258.53125 162.75 258.53125 L 152.792969 258.53125 C 152.234375 258.53125 151.753906 258.90625 151.628906 259.445312 L 151.558594 259.730469 L 152.722656 260.007812 L 151.5625 259.714844 L 151.558594 259.714844 L 151.558594 259.722656 L 151.558594 259.714844 L 151.558594 259.722656 L 151.558594 259.714844 L 151.582031 259.78125 L 151.582031 259.714844 L 151.558594 259.714844 L 151.582031 259.78125 L 151.582031 259.714844 L 151.582031 259.875 L 151.628906 259.722656 L 151.582031 259.714844 L 151.582031 259.875 L 151.628906 259.722656 L 151.59375 259.714844 L 151.582031 259.773438 L 151.628906 259.734375 L 151.59375 259.714844 L 151.582031 259.773438 L 151.628906 259.734375 L 151.605469 259.757812 L 151.636719 259.757812 L 151.628906 259.734375 L 151.605469 259.757812 L 151.636719 259.757812 L 151.335938 259.757812 L 151.636719 259.757812 L 151.335938 259.757812 L 151.636719 259.757812 L 151.636719 259.664062 C 151.605469 259.03125 151.074219 258.53125 150.441406 258.53125 L 150.007812 258.53125 C 149.386719 258.53125 148.867188 259.007812 148.816406 259.632812 L 150.007812 259.726562 L 150.007812 260.921875 L 150.441406 260.921875 L 150.441406 259.726562 L 149.242188 259.792969 L 150.140625 259.746094 L 149.242188 259.746094 L 149.242188 259.792969 L 150.140625 259.746094 L 149.242188 259.746094 L 149.480469 259.746094 L 149.242188 259.738281 L 149.242188 259.746094 L 149.480469 259.746094 L 149.242188 259.738281 L 149.242188 259.757812 C 149.238281 260.804688 149.949219 261.773438 151.015625 262.035156 L 151.304688 260.875 L 150.988281 262.03125 C 151.199219 262.085938 151.398438 262.109375 151.582031 262.109375 C 152.675781 262.097656 153.601562 261.371094 153.882812 260.300781 L 153.886719 260.285156 L 153.953125 260.007812 L 152.792969 259.726562 L 152.792969 260.921875 L 161.484375 260.921875 L 160.414062 282.296875 L 161.613281 282.359375 L 160.820312 281.460938 C 159.640625 282.492188 158.125 283.105469 156.457031 283.105469 C 156.285156 283.109375 156.109375 283.101562 155.925781 283.085938 C 152.472656 282.8125 149.863281 279.917969 149.863281 276.511719 C 149.863281 276.332031 149.871094 276.152344 149.882812 275.96875 L 151.207031 259.824219 L 150.007812 259.726562 L 150.007812 260.921875 L 150.007812 259.726562 " fill-opacity="1" fill-rule="nonzero"/><path fill="#231f20" d="M 187.464844 373.804688 C 295.25 373.804688 359.917969 346.667969 359.917969 234.777344 C 359.917969 201.046875 346.859375 164.367188 327.792969 129.636719 C 322.816406 120.539062 317.421875 111.558594 311.75 102.824219 C 284.574219 60.902344 250.890625 23.972656 224.726562 1.582031 L 224.625 7.355469 L 224.582031 9.183594 L 223.96875 40.78125 L 223.925781 42.941406 L 223.410156 69.996094 L 223.34375 73.574219 L 222.859375 98.523438 L 222.789062 102.097656 L 222.191406 133.164062 L 222.191406 135.484375 C 231.671875 137.652344 238.742188 146.113281 238.742188 156.257812 L 240.082031 171.441406 L 247.542969 171.441406 C 248.292969 169.453125 249.746094 167.730469 251.660156 166.472656 C 253.5625 165.210938 255.929688 164.421875 258.515625 164.292969 C 258.796875 164.25 259.082031 164.25 259.355469 164.25 C 266.167969 164.25 269.253906 163.914062 269.253906 174.535156 C 269.253906 185.210938 266.167969 184.863281 259.355469 184.863281 C 259.082031 184.863281 258.796875 184.863281 258.515625 184.832031 L 258.515625 184.824219 C 253.351562 184.566406 249.054688 181.652344 247.542969 177.683594 L 240.628906 177.683594 L 243.699219 212.472656 L 249.507812 212.472656 C 251.003906 208.515625 255.25 205.625 260.359375 205.335938 L 260.375 205.320312 C 260.652344 205.277344 260.933594 205.277344 261.214844 205.277344 L 262.378906 205.277344 C 268.375 205.277344 271.105469 205.574219 271.105469 215.578125 L 271.105469 215.59375 C 271.105469 219.273438 270.730469 221.617188 269.957031 223.140625 C 268.519531 226.027344 265.660156 225.890625 261.214844 225.890625 C 260.933594 225.890625 260.652344 225.890625 260.375 225.863281 L 260.359375 225.847656 C 255.25 225.558594 251.003906 222.652344 249.507812 218.703125 L 244.246094 218.703125 L 247.320312 253.496094 L 251.308594 253.496094 C 252.804688 249.566406 257.039062 246.640625 262.1875 246.34375 C 262.457031 246.316406 262.746094 246.316406 263.03125 246.316406 C 269.824219 246.316406 272.910156 245.96875 272.910156 256.605469 C 272.910156 267.265625 269.824219 266.917969 263.03125 266.917969 C 262.746094 266.917969 262.457031 266.917969 262.1875 266.890625 C 257.039062 266.601562 252.804688 263.679688 251.324219 259.726562 L 247.875 259.726562 L 250.46875 289.230469 C 250.46875 295.617188 250.882812 304.933594 239.109375 304.933594 C 239.109375 304.933594 234.421875 304.933594 227.015625 304.933594 C 219.894531 304.933594 204.867188 321.636719 188.503906 323 L 188.503906 323.128906 C 188.152344 323.128906 187.804688 323.078125 187.460938 323.0625 C 187.109375 323.078125 186.777344 323.128906 186.429688 323.128906 L 186.429688 323 C 170.0625 321.636719 155.019531 304.933594 147.914062 304.933594 C 140.507812 304.933594 135.820312 304.933594 135.820312 304.933594 C 124.046875 304.933594 124.449219 295.617188 124.449219 289.230469 L 127.050781 259.726562 L 123.632812 259.726562 C 122.136719 263.679688 117.878906 266.582031 112.765625 266.878906 L 112.75 266.890625 C 112.472656 266.917969 112.191406 266.917969 111.910156 266.917969 C 107.496094 266.917969 104.652344 267.054688 103.199219 264.207031 C 102.40625 262.6875 102.019531 260.34375 102.019531 256.617188 L 102.019531 256.605469 C 102.019531 245.96875 105.113281 246.316406 111.910156 246.316406 C 112.191406 246.316406 112.472656 246.316406 112.75 246.34375 L 112.765625 246.359375 C 117.878906 246.652344 122.136719 249.566406 123.621094 253.496094 L 127.609375 253.496094 L 130.679688 218.703125 L 125.421875 218.703125 C 123.925781 222.652344 119.683594 225.542969 114.570312 225.847656 L 114.558594 225.863281 C 114.277344 225.890625 113.996094 225.890625 113.714844 225.890625 C 110.742188 225.890625 108.46875 225.957031 106.863281 225.132812 C 104.796875 224.089844 103.824219 221.582031 103.824219 215.59375 C 103.824219 210.25 104.601562 207.691406 106.222656 206.4375 C 107.839844 205.199219 110.308594 205.277344 113.714844 205.277344 C 113.996094 205.277344 114.277344 205.277344 114.558594 205.320312 L 114.570312 205.335938 C 119.683594 205.625 123.925781 208.535156 125.421875 212.472656 L 131.230469 212.472656 L 134.300781 177.683594 L 127.382812 177.683594 C 125.875 181.652344 121.578125 184.558594 116.425781 184.824219 L 116.425781 184.832031 C 116.140625 184.863281 115.867188 184.863281 115.582031 184.863281 C 108.777344 184.863281 105.691406 185.210938 105.691406 174.535156 C 105.691406 163.914062 108.777344 164.25 115.582031 164.25 C 115.867188 164.25 116.140625 164.25 116.425781 164.292969 C 121.578125 164.558594 125.875 167.480469 127.382812 171.441406 L 134.847656 171.441406 L 136.179688 156.257812 C 136.179688 146.128906 143.257812 137.652344 152.734375 135.484375 L 152.734375 133.027344 L 150.203125 1.578125 C 150.351562 1.449219 150.5 1.328125 150.648438 1.195312 L 150.644531 1.195312 C 150.496094 1.328125 150.347656 1.449219 150.191406 1.578125 C 124.027344 23.980469 90.347656 60.910156 63.179688 102.824219 C 57.507812 111.558594 52.117188 120.539062 47.136719 129.636719 C 28.070312 164.367188 15.015625 201.046875 15.015625 234.777344 C 15.015625 346.667969 79.679688 373.804688 187.464844 373.804688 " fill-opacity="1" fill-rule="nonzero"/><g clip-path="url(#2cc0790448)"><path fill="#231f20" d="M 187.464844 373.804688 L 187.464844 375 C 214.460938 375 238.785156 373.304688 260.121094 368.992188 C 292.105469 362.523438 317.425781 350.132812 334.699219 328.6875 C 351.980469 307.246094 361.113281 276.898438 361.113281 234.777344 C 361.105469 200.734375 347.964844 163.902344 328.839844 129.0625 C 323.851562 119.933594 318.445312 110.933594 312.753906 102.167969 C 285.503906 60.144531 251.773438 23.152344 225.507812 0.675781 C 225.15625 0.371094 224.660156 0.304688 224.242188 0.488281 C 223.820312 0.679688 223.539062 1.101562 223.535156 1.558594 L 223.425781 7.335938 L 223.425781 7.328125 L 223.386719 9.15625 L 223.386719 9.160156 L 222.773438 40.757812 L 222.730469 42.917969 L 222.210938 69.980469 L 222.144531 73.554688 L 221.664062 98.5 L 221.59375 102.078125 L 220.996094 133.140625 L 220.996094 135.484375 C 220.996094 136.042969 221.382812 136.527344 221.925781 136.648438 C 230.871094 138.699219 237.550781 146.683594 237.550781 156.257812 L 237.550781 156.363281 L 238.886719 171.546875 C 238.945312 172.167969 239.457031 172.640625 240.082031 172.640625 L 247.542969 172.640625 C 248.042969 172.640625 248.488281 172.332031 248.667969 171.863281 C 249.3125 170.144531 250.589844 168.609375 252.3125 167.472656 L 252.320312 167.472656 C 254.039062 166.335938 256.195312 165.609375 258.582031 165.488281 L 258.691406 165.472656 C 258.855469 165.449219 259.082031 165.445312 259.355469 165.445312 C 259.765625 165.445312 260.152344 165.445312 260.527344 165.445312 C 262.011719 165.441406 263.261719 165.46875 264.21875 165.628906 C 264.945312 165.75 265.492188 165.941406 265.921875 166.210938 C 266.246094 166.421875 266.511719 166.675781 266.769531 167.039062 C 267.144531 167.585938 267.476562 168.410156 267.703125 169.636719 C 267.933594 170.863281 268.054688 172.476562 268.054688 174.535156 C 268.054688 176.984375 267.882812 178.808594 267.570312 180.097656 C 267.335938 181.066406 267.027344 181.730469 266.683594 182.183594 C 266.429688 182.53125 266.15625 182.769531 265.820312 182.964844 C 265.324219 183.253906 264.65625 183.445312 263.773438 183.546875 C 262.890625 183.65625 261.816406 183.671875 260.5625 183.671875 C 260.179688 183.671875 259.78125 183.671875 259.355469 183.671875 C 259.082031 183.671875 258.84375 183.664062 258.640625 183.648438 L 258.515625 184.832031 L 259.710938 184.832031 L 259.710938 184.824219 C 259.710938 184.183594 259.214844 183.660156 258.574219 183.628906 C 253.820312 183.398438 249.953125 180.691406 248.667969 177.261719 C 248.488281 176.792969 248.042969 176.484375 247.542969 176.484375 L 240.628906 176.484375 C 240.289062 176.484375 239.972656 176.625 239.742188 176.878906 C 239.519531 177.125 239.40625 177.453125 239.433594 177.789062 L 242.507812 212.574219 C 242.5625 213.191406 243.078125 213.667969 243.699219 213.667969 L 249.507812 213.667969 C 250.003906 213.667969 250.449219 213.359375 250.625 212.890625 C 251.90625 209.472656 255.71875 206.792969 260.429688 206.527344 C 260.703125 206.511719 260.964844 206.398438 261.171875 206.214844 L 261.183594 206.199219 L 260.375 205.320312 L 260.554688 206.503906 C 260.714844 206.480469 260.933594 206.476562 261.214844 206.476562 L 262.378906 206.476562 C 263.863281 206.476562 265.109375 206.5 266.074219 206.660156 C 266.792969 206.78125 267.34375 206.96875 267.773438 207.246094 C 268.097656 207.453125 268.363281 207.703125 268.621094 208.070312 C 268.996094 208.617188 269.332031 209.441406 269.554688 210.671875 C 269.785156 211.902344 269.90625 213.515625 269.90625 215.578125 L 269.90625 215.59375 C 269.917969 219.199219 269.519531 221.394531 268.890625 222.601562 L 268.886719 222.609375 C 268.621094 223.136719 268.332031 223.484375 268 223.75 C 267.503906 224.144531 266.839844 224.394531 265.886719 224.535156 C 264.9375 224.679688 263.734375 224.699219 262.308594 224.699219 C 261.957031 224.699219 261.59375 224.695312 261.214844 224.695312 C 260.933594 224.695312 260.695312 224.695312 260.492188 224.675781 L 260.375 225.863281 L 261.183594 224.984375 L 261.171875 224.96875 C 260.964844 224.78125 260.703125 224.675781 260.429688 224.65625 C 255.722656 224.390625 251.90625 221.703125 250.625 218.277344 C 250.449219 217.808594 250.003906 217.503906 249.507812 217.503906 L 244.246094 217.503906 C 243.910156 217.503906 243.59375 217.640625 243.363281 217.894531 C 243.132812 218.140625 243.027344 218.46875 243.054688 218.804688 L 246.128906 253.601562 C 246.179688 254.21875 246.699219 254.691406 247.320312 254.691406 L 251.308594 254.691406 C 251.804688 254.691406 252.253906 254.382812 252.425781 253.921875 C 253.710938 250.507812 257.507812 247.808594 262.257812 247.539062 L 262.316406 247.535156 C 262.496094 247.515625 262.753906 247.511719 263.03125 247.511719 C 263.445312 247.511719 263.847656 247.511719 264.234375 247.511719 C 265.710938 247.511719 266.953125 247.535156 267.90625 247.699219 C 268.621094 247.820312 269.167969 248.011719 269.589844 248.285156 C 269.910156 248.488281 270.179688 248.746094 270.429688 249.109375 C 270.804688 249.65625 271.136719 250.480469 271.367188 251.710938 C 271.589844 252.933594 271.710938 254.546875 271.710938 256.605469 C 271.710938 259.054688 271.542969 260.871094 271.226562 262.160156 C 270.992188 263.128906 270.683594 263.789062 270.347656 264.246094 C 270.089844 264.585938 269.8125 264.824219 269.480469 265.023438 C 268.980469 265.3125 268.316406 265.503906 267.433594 265.605469 C 266.554688 265.714844 265.480469 265.726562 264.230469 265.726562 C 263.851562 265.726562 263.449219 265.722656 263.03125 265.722656 C 262.753906 265.722656 262.496094 265.722656 262.316406 265.703125 L 262.257812 265.699219 C 257.507812 265.433594 253.71875 262.730469 252.445312 259.304688 C 252.265625 258.84375 251.824219 258.53125 251.324219 258.53125 L 247.875 258.53125 C 247.539062 258.53125 247.226562 258.667969 246.996094 258.917969 C 246.769531 259.167969 246.65625 259.496094 246.683594 259.832031 L 249.273438 289.332031 L 250.46875 289.230469 L 249.269531 289.230469 C 249.269531 289.652344 249.273438 290.089844 249.273438 290.527344 C 249.285156 293.644531 249.148438 297.082031 247.851562 299.535156 C 247.207031 300.765625 246.3125 301.769531 244.953125 302.515625 C 243.585938 303.253906 241.710938 303.738281 239.109375 303.738281 C 239.101562 303.738281 237.9375 303.738281 235.839844 303.738281 C 233.742188 303.738281 230.71875 303.738281 227.015625 303.738281 C 225.886719 303.742188 224.746094 304.054688 223.535156 304.546875 C 221.421875 305.414062 219.078125 306.859375 216.480469 308.550781 C 212.589844 311.09375 208.148438 314.207031 203.378906 316.78125 C 198.609375 319.359375 193.523438 321.382812 188.398438 321.804688 C 187.78125 321.859375 187.304688 322.375 187.304688 323 L 187.304688 323.128906 L 188.503906 323.128906 L 188.503906 321.933594 C 188.273438 321.9375 187.941406 321.890625 187.5 321.867188 L 187.414062 321.867188 C 186.972656 321.890625 186.65625 321.9375 186.429688 321.933594 L 186.429688 323.128906 L 187.628906 323.128906 L 187.628906 323 C 187.628906 322.375 187.152344 321.859375 186.527344 321.804688 C 178.722656 321.171875 171.003906 316.777344 164.351562 312.453125 C 161.023438 310.289062 157.964844 308.160156 155.242188 306.535156 C 153.882812 305.726562 152.601562 305.039062 151.394531 304.546875 C 150.183594 304.054688 149.042969 303.742188 147.914062 303.738281 C 140.507812 303.738281 135.820312 303.738281 135.820312 303.738281 C 133.210938 303.738281 131.332031 303.253906 129.964844 302.511719 C 128.941406 301.953125 128.1875 301.242188 127.601562 300.398438 C 126.714844 299.148438 126.210938 297.5625 125.945312 295.828125 C 125.671875 294.097656 125.644531 292.242188 125.644531 290.484375 C 125.644531 290.0625 125.644531 289.640625 125.644531 289.230469 L 124.449219 289.230469 L 125.640625 289.332031 L 128.246094 259.832031 C 128.273438 259.496094 128.160156 259.167969 127.933594 258.917969 C 127.703125 258.667969 127.390625 258.53125 127.050781 258.53125 L 123.632812 258.53125 C 123.132812 258.53125 122.6875 258.839844 122.515625 259.304688 C 121.234375 262.726562 117.410156 265.417969 112.699219 265.683594 C 112.402344 265.699219 112.128906 265.820312 111.917969 266.03125 L 111.90625 266.046875 L 112.75 266.890625 L 112.628906 265.699219 C 112.429688 265.722656 112.195312 265.722656 111.910156 265.722656 C 111.53125 265.722656 111.160156 265.726562 110.8125 265.726562 C 108.925781 265.730469 107.429688 265.683594 106.402344 265.390625 C 105.886719 265.246094 105.488281 265.054688 105.152344 264.789062 C 104.816406 264.527344 104.53125 264.183594 104.257812 263.667969 L 104.257812 263.660156 C 103.617188 262.457031 103.207031 260.261719 103.214844 256.617188 L 103.214844 256.605469 C 103.214844 254.164062 103.390625 252.355469 103.703125 251.070312 C 103.9375 250.101562 104.246094 249.449219 104.585938 248.996094 C 104.84375 248.652344 105.121094 248.414062 105.453125 248.21875 C 105.953125 247.929688 106.621094 247.738281 107.503906 247.632812 C 108.382812 247.53125 109.460938 247.511719 110.707031 247.511719 C 111.097656 247.511719 111.5 247.511719 111.910156 247.511719 C 112.195312 247.511719 112.429688 247.515625 112.628906 247.535156 L 112.75 246.34375 L 111.90625 247.195312 L 111.917969 247.203125 C 112.125 247.414062 112.40625 247.535156 112.699219 247.554688 C 117.40625 247.816406 121.234375 250.511719 122.503906 253.921875 C 122.675781 254.386719 123.125 254.691406 123.621094 254.691406 L 127.609375 254.691406 C 128.230469 254.691406 128.75 254.21875 128.800781 253.601562 L 131.875 218.804688 C 131.902344 218.46875 131.792969 218.140625 131.566406 217.894531 C 131.335938 217.640625 131.019531 217.503906 130.679688 217.503906 L 125.421875 217.503906 C 124.925781 217.503906 124.480469 217.808594 124.300781 218.277344 C 123.019531 221.699219 119.210938 224.382812 114.496094 224.65625 C 114.207031 224.675781 113.929688 224.796875 113.722656 225.003906 L 113.710938 225.015625 L 114.558594 225.863281 L 114.433594 224.675781 C 114.234375 224.695312 113.996094 224.695312 113.714844 224.695312 C 113.304688 224.695312 112.910156 224.699219 112.53125 224.699219 C 111.339844 224.699219 110.300781 224.683594 109.445312 224.589844 C 108.585938 224.496094 107.914062 224.328125 107.414062 224.066406 L 107.40625 224.0625 C 107.027344 223.871094 106.726562 223.636719 106.453125 223.292969 C 106.039062 222.78125 105.671875 221.988281 105.414062 220.730469 C 105.15625 219.476562 105.019531 217.789062 105.019531 215.59375 C 105.019531 212.980469 105.21875 211.09375 105.570312 209.796875 C 105.929688 208.488281 106.394531 207.824219 106.957031 207.386719 C 107.449219 207.007812 108.113281 206.769531 109.0625 206.628906 C 110 206.492188 111.195312 206.476562 112.605469 206.476562 C 112.964844 206.476562 113.335938 206.476562 113.714844 206.476562 C 113.996094 206.476562 114.214844 206.480469 114.378906 206.503906 L 114.558594 205.320312 L 113.710938 206.167969 L 113.722656 206.179688 C 113.929688 206.386719 114.210938 206.511719 114.5 206.527344 C 119.210938 206.789062 123.019531 209.484375 124.300781 212.890625 C 124.480469 213.359375 124.929688 213.667969 125.421875 213.667969 L 131.230469 213.667969 C 131.851562 213.667969 132.363281 213.191406 132.421875 212.574219 L 135.492188 177.789062 C 135.527344 177.453125 135.414062 177.125 135.183594 176.878906 C 134.957031 176.625 134.636719 176.492188 134.300781 176.492188 L 127.382812 176.492188 C 126.890625 176.492188 126.445312 176.792969 126.265625 177.261719 C 124.976562 180.691406 121.109375 183.390625 116.363281 183.628906 C 115.730469 183.660156 115.230469 184.1875 115.230469 184.824219 L 115.230469 184.832031 L 116.425781 184.832031 L 116.300781 183.648438 C 116.101562 183.664062 115.867188 183.671875 115.582031 183.671875 C 115.164062 183.671875 114.761719 183.671875 114.378906 183.671875 C 112.898438 183.671875 111.65625 183.648438 110.703125 183.484375 C 109.984375 183.363281 109.441406 183.171875 109.011719 182.894531 C 108.691406 182.6875 108.425781 182.4375 108.167969 182.066406 C 107.792969 181.519531 107.460938 180.6875 107.238281 179.453125 C 107.007812 178.226562 106.886719 176.609375 106.886719 174.535156 C 106.886719 172.09375 107.058594 170.285156 107.375 169 C 107.605469 168.03125 107.914062 167.371094 108.257812 166.921875 C 108.519531 166.582031 108.796875 166.34375 109.132812 166.148438 C 109.632812 165.855469 110.304688 165.664062 111.195312 165.5625 C 112.078125 165.460938 113.164062 165.445312 114.417969 165.445312 C 114.796875 165.445312 115.183594 165.445312 115.582031 165.445312 C 115.867188 165.445312 116.082031 165.449219 116.25 165.472656 L 116.363281 165.488281 C 121.109375 165.726562 124.976562 168.433594 126.265625 171.867188 C 126.441406 172.332031 126.890625 172.640625 127.382812 172.640625 L 134.847656 172.640625 C 135.46875 172.640625 135.984375 172.167969 136.039062 171.546875 L 137.378906 156.363281 L 137.382812 156.257812 C 137.378906 146.699219 144.0625 138.699219 153.003906 136.648438 C 153.546875 136.527344 153.933594 136.042969 153.933594 135.484375 L 153.933594 133.003906 L 151.398438 1.554688 L 150.203125 1.578125 L 150.976562 2.492188 C 151.121094 2.363281 151.269531 2.242188 151.425781 2.113281 C 151.808594 1.785156 151.949219 1.257812 151.777344 0.785156 C 151.605469 0.3125 151.15625 0 150.648438 0 L 150.644531 0 C 150.355469 0 150.078125 0.101562 149.863281 0.289062 C 149.722656 0.410156 149.578125 0.53125 149.414062 0.671875 C 123.148438 23.164062 89.414062 60.152344 62.175781 102.171875 C 56.488281 110.933594 51.078125 119.933594 46.082031 129.0625 C 26.964844 163.902344 13.824219 200.734375 13.820312 234.777344 C 13.820312 262.863281 17.875 285.699219 25.703125 304.171875 C 37.429688 331.886719 57.714844 349.6875 85.09375 360.433594 C 112.484375 371.1875 146.96875 374.996094 187.464844 375 L 187.464844 372.609375 C 160.570312 372.609375 136.390625 370.917969 115.285156 366.644531 C 83.617188 360.230469 58.914062 348.066406 42.09375 327.1875 C 25.265625 306.308594 16.214844 276.574219 16.214844 234.777344 C 16.203125 201.355469 29.175781 164.832031 48.183594 130.214844 C 53.148438 121.140625 58.527344 112.191406 64.183594 103.472656 C 91.277344 61.671875 124.910156 24.800781 150.96875 2.484375 C 151.113281 2.363281 151.261719 2.242188 151.421875 2.105469 L 150.644531 1.195312 L 150.644531 2.390625 L 150.648438 2.390625 L 150.648438 1.195312 L 149.878906 0.285156 C 149.734375 0.410156 149.585938 0.53125 149.421875 0.671875 C 149.148438 0.90625 148.996094 1.242188 149.003906 1.601562 L 151.539062 133.050781 L 152.734375 133.027344 L 151.539062 133.027344 L 151.539062 135.484375 L 152.734375 135.484375 L 152.464844 134.316406 C 142.453125 136.613281 134.988281 145.558594 134.984375 156.257812 L 136.179688 156.257812 L 134.988281 156.152344 L 133.75 170.246094 L 127.382812 170.246094 L 127.382812 171.441406 L 128.503906 171.015625 C 126.777344 166.527344 122.042969 163.390625 116.488281 163.09375 L 116.425781 164.292969 L 116.601562 163.109375 C 116.207031 163.046875 115.867188 163.054688 115.582031 163.054688 C 115.183594 163.054688 114.796875 163.054688 114.417969 163.054688 C 112.90625 163.054688 111.5625 163.066406 110.328125 163.269531 C 109.402344 163.425781 108.523438 163.699219 107.734375 164.195312 C 107.148438 164.566406 106.625 165.066406 106.203125 165.683594 C 105.570312 166.605469 105.152344 167.757812 104.882812 169.199219 C 104.613281 170.644531 104.492188 172.382812 104.492188 174.535156 C 104.492188 177.097656 104.660156 179.074219 105.042969 180.660156 C 105.335938 181.847656 105.746094 182.824219 106.335938 183.617188 C 106.78125 184.207031 107.316406 184.683594 107.914062 185.03125 C 108.820312 185.554688 109.824219 185.796875 110.890625 185.925781 C 111.957031 186.050781 113.113281 186.0625 114.378906 186.0625 C 114.773438 186.0625 115.167969 186.058594 115.582031 186.058594 C 115.867188 186.058594 116.183594 186.0625 116.550781 186.027344 C 117.160156 185.960938 117.625 185.449219 117.625 184.832031 L 117.625 184.824219 L 116.425781 184.824219 L 116.488281 186.015625 C 122.042969 185.726562 126.777344 182.605469 128.503906 178.113281 L 127.382812 177.683594 L 127.382812 178.878906 L 132.992188 178.878906 L 130.132812 211.273438 L 125.421875 211.273438 L 125.421875 212.472656 L 126.542969 212.046875 C 124.832031 207.585938 120.15625 204.457031 114.636719 204.136719 L 114.570312 205.335938 L 115.417969 204.488281 L 115.402344 204.472656 C 115.222656 204.292969 114.988281 204.175781 114.734375 204.136719 C 114.335938 204.078125 113.996094 204.082031 113.714844 204.082031 C 113.335938 204.082031 112.964844 204.082031 112.605469 204.082031 C 111.175781 204.082031 109.898438 204.089844 108.71875 204.257812 C 107.546875 204.425781 106.4375 204.769531 105.5 205.488281 C 104.425781 206.304688 103.691406 207.550781 103.257812 209.171875 C 102.820312 210.804688 102.625 212.863281 102.625 215.59375 C 102.632812 218.652344 102.867188 220.878906 103.4375 222.59375 C 103.714844 223.449219 104.09375 224.183594 104.585938 224.792969 C 105.074219 225.398438 105.671875 225.871094 106.324219 226.199219 L 106.863281 225.132812 L 106.316406 226.195312 C 107.199219 226.648438 108.164062 226.859375 109.1875 226.96875 C 110.21875 227.082031 111.324219 227.09375 112.53125 227.09375 C 112.917969 227.09375 113.3125 227.085938 113.714844 227.085938 C 113.996094 227.085938 114.316406 227.09375 114.671875 227.054688 C 114.949219 227.027344 115.207031 226.90625 115.402344 226.707031 L 115.417969 226.699219 L 114.570312 225.847656 L 114.640625 227.046875 C 120.15625 226.714844 124.832031 223.601562 126.542969 219.121094 L 125.421875 218.703125 L 125.421875 219.898438 L 129.375 219.898438 L 126.515625 252.304688 L 123.621094 252.300781 L 123.621094 253.496094 L 124.742188 253.074219 C 123.039062 248.609375 118.355469 245.484375 112.835938 245.167969 L 112.765625 246.359375 L 113.613281 245.511719 L 113.597656 245.5 C 113.40625 245.304688 113.152344 245.183594 112.878906 245.15625 C 112.511719 245.121094 112.191406 245.121094 111.910156 245.121094 C 111.5 245.121094 111.097656 245.121094 110.707031 245.121094 C 109.207031 245.125 107.871094 245.132812 106.640625 245.339844 C 105.71875 245.5 104.839844 245.769531 104.058594 246.269531 C 103.46875 246.644531 102.949219 247.144531 102.527344 247.753906 C 101.894531 248.679688 101.480469 249.835938 101.210938 251.273438 C 100.941406 252.714844 100.820312 254.453125 100.820312 256.605469 L 100.820312 256.617188 C 100.832031 260.421875 101.195312 262.929688 102.132812 264.761719 L 102.125 264.753906 C 102.527344 265.535156 103.046875 266.1875 103.675781 266.671875 C 104.613281 267.410156 105.730469 267.761719 106.910156 267.933594 C 108.097656 268.105469 109.378906 268.117188 110.8125 268.121094 C 111.171875 268.121094 111.535156 268.117188 111.910156 268.117188 C 112.191406 268.117188 112.511719 268.121094 112.878906 268.082031 C 113.152344 268.054688 113.40625 267.933594 113.597656 267.738281 L 113.613281 267.722656 L 112.765625 266.878906 L 112.835938 268.074219 C 118.355469 267.75 123.042969 264.628906 124.75 260.152344 L 123.632812 259.726562 L 123.632812 260.921875 L 125.742188 260.921875 L 123.253906 289.121094 L 123.25 289.230469 C 123.25 289.636719 123.25 290.054688 123.25 290.484375 C 123.261719 293.648438 123.300781 297.429688 124.9375 300.621094 C 125.757812 302.207031 127.019531 303.632812 128.820312 304.609375 C 130.621094 305.59375 132.921875 306.128906 135.820312 306.128906 C 135.820312 306.128906 140.507812 306.128906 147.914062 306.128906 C 148.570312 306.125 149.449219 306.335938 150.488281 306.761719 C 152.304688 307.503906 154.574219 308.882812 157.132812 310.554688 C 160.976562 313.066406 165.480469 316.226562 170.410156 318.886719 C 175.34375 321.550781 180.714844 323.71875 186.332031 324.191406 L 186.429688 323 L 185.234375 323 L 185.234375 323.128906 C 185.234375 323.453125 185.359375 323.75 185.585938 323.976562 C 185.808594 324.203125 186.113281 324.324219 186.429688 324.324219 C 186.898438 324.320312 187.25 324.265625 187.5 324.261719 L 187.460938 323.0625 L 187.414062 324.261719 C 187.671875 324.265625 188.03125 324.320312 188.503906 324.324219 C 188.816406 324.324219 189.125 324.199219 189.347656 323.980469 C 189.570312 323.753906 189.699219 323.445312 189.699219 323.128906 L 189.699219 323 L 188.503906 323 L 188.601562 324.191406 C 197.160156 323.464844 205.140625 318.824219 211.875 314.460938 C 215.242188 312.273438 218.296875 310.144531 220.90625 308.59375 C 222.210938 307.816406 223.402344 307.1875 224.441406 306.761719 C 225.480469 306.335938 226.359375 306.125 227.015625 306.128906 C 230.71875 306.128906 233.742188 306.128906 235.839844 306.128906 C 237.9375 306.128906 239.101562 306.128906 239.109375 306.128906 C 242.003906 306.128906 244.296875 305.597656 246.09375 304.617188 C 247.445312 303.886719 248.496094 302.90625 249.277344 301.792969 C 250.453125 300.113281 251.03125 298.175781 251.339844 296.226562 C 251.640625 294.277344 251.667969 292.308594 251.667969 290.527344 C 251.667969 290.078125 251.664062 289.644531 251.664062 289.230469 L 251.660156 289.121094 L 249.183594 260.921875 L 251.324219 260.921875 L 251.324219 259.726562 L 250.199219 260.148438 C 251.898438 264.625 256.566406 267.769531 262.121094 268.089844 L 262.1875 266.890625 L 262.058594 268.082031 C 262.421875 268.121094 262.746094 268.117188 263.03125 268.117188 C 263.441406 268.117188 263.84375 268.121094 264.230469 268.121094 C 265.730469 268.117188 267.070312 268.105469 268.304688 267.902344 C 269.222656 267.742188 270.097656 267.472656 270.878906 266.964844 C 271.46875 266.59375 271.988281 266.09375 272.410156 265.476562 C 273.039062 264.550781 273.453125 263.390625 273.71875 261.949219 C 273.984375 260.507812 274.105469 258.761719 274.105469 256.605469 C 274.105469 254.054688 273.9375 252.085938 273.554688 250.503906 C 273.269531 249.320312 272.855469 248.34375 272.265625 247.558594 C 271.824219 246.96875 271.28125 246.492188 270.683594 246.148438 C 269.78125 245.628906 268.78125 245.386719 267.71875 245.261719 C 266.648438 245.132812 265.496094 245.121094 264.234375 245.121094 C 263.847656 245.121094 263.445312 245.121094 263.03125 245.121094 C 262.746094 245.125 262.421875 245.121094 262.058594 245.15625 L 262.1875 246.34375 L 262.121094 245.152344 C 256.558594 245.46875 251.898438 248.617188 250.191406 253.070312 L 251.308594 253.496094 L 251.308594 252.300781 L 248.414062 252.300781 L 245.554688 219.898438 L 249.507812 219.898438 L 249.507812 218.703125 L 248.386719 219.121094 C 250.097656 223.601562 254.773438 226.726562 260.292969 227.046875 L 260.359375 225.847656 L 259.554688 226.730469 L 259.5625 226.746094 C 259.753906 226.917969 259.996094 227.03125 260.253906 227.054688 C 260.609375 227.09375 260.933594 227.085938 261.214844 227.085938 C 261.585938 227.085938 261.953125 227.09375 262.308594 227.09375 C 264.234375 227.085938 265.890625 227.078125 267.394531 226.660156 C 268.148438 226.445312 268.863281 226.121094 269.488281 225.625 C 270.117188 225.128906 270.636719 224.46875 271.03125 223.679688 L 271.023438 223.683594 C 271.945312 221.847656 272.292969 219.351562 272.300781 215.59375 L 272.300781 215.578125 C 272.300781 213.023438 272.128906 211.046875 271.746094 209.464844 C 271.460938 208.277344 271.039062 207.300781 270.449219 206.511719 C 270.003906 205.921875 269.464844 205.449219 268.859375 205.105469 C 267.953125 204.585938 266.945312 204.34375 265.875 204.21875 C 264.804688 204.089844 263.648438 204.082031 262.378906 204.082031 L 261.214844 204.082031 C 260.933594 204.082031 260.589844 204.078125 260.195312 204.136719 C 259.960938 204.175781 259.742188 204.277344 259.5625 204.4375 L 259.554688 204.449219 L 260.359375 205.335938 L 260.292969 204.136719 C 254.777344 204.457031 250.097656 207.570312 248.386719 212.046875 L 249.507812 212.472656 L 249.507812 211.273438 L 244.792969 211.273438 L 241.9375 178.882812 L 247.542969 178.882812 L 247.542969 177.683594 L 246.425781 178.113281 C 248.152344 182.605469 252.882812 185.742188 258.460938 186.015625 L 258.515625 184.824219 L 257.316406 184.824219 L 257.316406 184.832031 C 257.316406 185.449219 257.785156 185.960938 258.394531 186.027344 C 258.757812 186.0625 259.082031 186.058594 259.355469 186.058594 C 259.773438 186.058594 260.171875 186.0625 260.5625 186.0625 C 262.070312 186.0625 263.40625 186.050781 264.640625 185.84375 C 265.5625 185.683594 266.4375 185.414062 267.222656 184.910156 C 267.8125 184.535156 268.332031 184.035156 268.746094 183.414062 C 269.378906 182.488281 269.796875 181.328125 270.0625 179.890625 C 270.328125 178.445312 270.449219 176.695312 270.449219 174.535156 C 270.449219 171.984375 270.277344 170.011719 269.894531 168.429688 C 269.609375 167.246094 269.1875 166.269531 268.59375 165.484375 C 268.152344 164.894531 267.609375 164.421875 267.007812 164.078125 C 266.105469 163.554688 265.101562 163.316406 264.027344 163.1875 C 262.953125 163.0625 261.796875 163.054688 260.527344 163.054688 C 260.148438 163.054688 259.757812 163.054688 259.355469 163.054688 C 259.082031 163.054688 258.738281 163.046875 258.34375 163.109375 L 258.515625 164.292969 L 258.453125 163.09375 C 255.664062 163.238281 253.089844 164.089844 250.996094 165.480469 L 251 165.480469 C 248.90625 166.851562 247.273438 168.765625 246.425781 171.023438 L 247.542969 171.441406 L 247.542969 170.246094 L 241.179688 170.246094 L 239.941406 156.152344 L 238.742188 156.257812 L 239.941406 156.257812 C 239.941406 145.546875 232.472656 136.613281 222.464844 134.316406 L 222.191406 135.484375 L 223.390625 135.484375 L 223.390625 133.164062 L 222.191406 133.164062 L 223.390625 133.1875 L 223.988281 102.121094 L 224.058594 98.546875 L 224.539062 73.601562 L 224.605469 70.019531 L 225.125 42.960938 L 225.167969 40.804688 L 225.777344 9.207031 L 225.777344 9.210938 L 225.820312 7.382812 L 225.820312 7.378906 L 225.925781 1.605469 L 224.726562 1.582031 L 223.949219 2.492188 C 250.011719 24.789062 283.640625 61.664062 310.742188 103.472656 C 316.40625 112.191406 321.785156 121.140625 326.742188 130.214844 C 345.757812 164.832031 358.722656 201.355469 358.71875 234.777344 C 358.71875 262.636719 354.6875 285.152344 347.023438 303.238281 C 335.515625 330.355469 315.882812 347.605469 288.960938 358.203125 C 262.03125 368.789062 227.808594 372.613281 187.464844 372.609375 L 187.464844 373.804688 " fill-opacity="1" fill-rule="nonzero"/></g><path fill="#231f20" d="M 165.390625 207.039062 L 164.09375 212.472656 L 165.109375 212.472656 Z M 165.390625 207.039062 " fill-opacity="1" fill-rule="nonzero"/><path fill="#231f20" d="M 165.390625 207.039062 L 164.226562 206.761719 L 162.929688 212.191406 C 162.847656 212.550781 162.925781 212.921875 163.15625 213.210938 C 163.382812 213.5 163.726562 213.667969 164.09375 213.667969 L 165.109375 213.667969 C 165.746094 213.667969 166.273438 213.167969 166.308594 212.53125 L 166.589844 207.101562 C 166.621094 206.484375 166.171875 205.941406 165.558594 205.851562 C 164.953125 205.765625 164.371094 206.160156 164.226562 206.761719 L 165.390625 207.039062 L 164.195312 206.976562 L 163.917969 212.40625 L 165.109375 212.472656 L 165.109375 211.273438 L 164.09375 211.273438 L 164.09375 212.472656 L 165.261719 212.746094 L 166.554688 207.316406 L 165.390625 207.039062 L 164.195312 206.976562 L 165.390625 207.039062 " fill-opacity="1" fill-rule="nonzero"/><path fill="#231f20" d="M 164.804688 218.703125 L 162.605469 218.703125 L 154.269531 253.496094 L 163.058594 253.496094 L 164.804688 218.703125 " fill-opacity="1" fill-rule="nonzero"/><path fill="#231f20" d="M 164.804688 218.703125 L 164.804688 217.503906 L 162.605469 217.503906 C 162.046875 217.503906 161.566406 217.882812 161.433594 218.421875 L 153.105469 253.21875 C 153.019531 253.574219 153.101562 253.949219 153.328125 254.238281 C 153.558594 254.527344 153.902344 254.691406 154.269531 254.691406 L 163.058594 254.691406 C 163.691406 254.691406 164.21875 254.195312 164.25 253.554688 L 166 218.757812 C 166.015625 218.429688 165.902344 218.113281 165.671875 217.875 C 165.445312 217.636719 165.132812 217.503906 164.804688 217.503906 L 164.804688 218.703125 L 163.609375 218.640625 L 161.917969 252.304688 L 155.789062 252.304688 L 163.546875 219.898438 L 164.804688 219.898438 L 164.804688 218.703125 L 163.609375 218.640625 L 164.804688 218.703125 " fill-opacity="1" fill-rule="nonzero"/><path fill="#231f20" d="M 167.78125 159.394531 C 166.996094 163.210938 166.140625 167.277344 165.285156 171.441406 L 167.175781 171.441406 L 167.78125 159.394531 " fill-opacity="1" fill-rule="nonzero"/><path fill="#231f20" d="M 167.78125 159.394531 L 166.613281 159.15625 C 165.820312 162.964844 164.964844 167.035156 164.109375 171.199219 C 164.039062 171.554688 164.128906 171.917969 164.355469 172.199219 C 164.582031 172.476562 164.921875 172.640625 165.285156 172.640625 L 167.175781 172.640625 C 167.816406 172.640625 168.34375 172.140625 168.375 171.503906 L 168.976562 159.453125 C 169.011719 158.832031 168.550781 158.285156 167.933594 158.207031 C 167.3125 158.132812 166.738281 158.542969 166.613281 159.15625 L 167.78125 159.394531 L 166.589844 159.332031 L 166.039062 170.246094 L 165.285156 170.246094 L 165.285156 171.441406 L 166.457031 171.679688 C 167.3125 167.519531 168.164062 163.453125 168.953125 159.636719 L 167.78125 159.394531 L 166.589844 159.332031 L 167.78125 159.394531 " fill-opacity="1" fill-rule="nonzero"/><path fill="#231f20" d="M 166.859375 177.683594 L 163.988281 177.683594 C 161.183594 191.257812 158.378906 204.796875 156.796875 212.472656 L 161.675781 212.472656 L 166.03125 194.3125 L 166.859375 177.683594 " fill-opacity="1" fill-rule="nonzero"/><path fill="#231f20" d="M 166.859375 177.683594 L 166.859375 176.492188 L 163.988281 176.492188 C 163.421875 176.492188 162.929688 176.886719 162.8125 177.445312 C 160.011719 191.011719 157.210938 204.554688 155.621094 212.226562 C 155.546875 212.578125 155.640625 212.949219 155.863281 213.222656 C 156.09375 213.503906 156.433594 213.667969 156.796875 213.667969 L 161.675781 213.667969 C 162.234375 213.667969 162.714844 213.285156 162.847656 212.746094 L 167.195312 194.589844 L 167.230469 194.375 L 168.054688 177.742188 C 168.070312 177.417969 167.953125 177.097656 167.722656 176.859375 C 167.5 176.621094 167.1875 176.492188 166.859375 176.492188 L 166.859375 177.683594 L 165.664062 177.625 L 164.84375 194.144531 L 160.738281 211.273438 L 156.796875 211.273438 L 156.796875 212.472656 L 157.96875 212.710938 C 159.554688 205.039062 162.355469 191.5 165.160156 177.925781 L 163.988281 177.683594 L 163.988281 178.878906 L 166.859375 178.878906 L 166.859375 177.683594 L 165.664062 177.625 L 166.859375 177.683594 " fill-opacity="1" fill-rule="nonzero"/><path fill="#231f20" d="M 157.191406 171.441406 L 158.796875 171.441406 L 160.179688 156.566406 C 159.011719 157.566406 158.222656 158.992188 158.085938 160.632812 L 157.191406 171.441406 " fill-opacity="1" fill-rule="nonzero"/><path fill="#231f20" d="M 157.191406 171.441406 L 157.191406 172.640625 L 158.796875 172.640625 C 159.414062 172.640625 159.933594 172.167969 159.988281 171.550781 L 161.375 156.675781 C 161.421875 156.191406 161.167969 155.730469 160.734375 155.503906 C 160.304688 155.28125 159.777344 155.335938 159.410156 155.652344 C 158.007812 156.847656 157.058594 158.570312 156.894531 160.535156 L 156 171.34375 C 155.972656 171.675781 156.085938 172.007812 156.3125 172.25 C 156.539062 172.5 156.859375 172.640625 157.191406 172.640625 L 157.191406 171.441406 L 158.386719 171.539062 L 159.277344 160.734375 C 159.390625 159.417969 160.011719 158.285156 160.960938 157.476562 L 160.179688 156.566406 L 158.992188 156.453125 L 157.707031 170.246094 L 157.191406 170.246094 L 157.191406 171.441406 L 158.386719 171.539062 L 157.191406 171.441406 " fill-opacity="1" fill-rule="nonzero"/><path fill="#231f20" d="M 150.519531 253.496094 L 151.867188 253.496094 L 160.195312 218.703125 L 155.496094 218.703125 L 155.457031 218.855469 C 155.378906 219.285156 154.949219 219.542969 154.535156 219.472656 C 154.175781 219.394531 153.9375 219.058594 153.9375 218.703125 L 153.347656 218.703125 L 150.519531 253.496094 " fill-opacity="1" fill-rule="nonzero"/><path fill="#231f20" d="M 150.519531 253.496094 L 150.519531 254.691406 L 151.867188 254.691406 C 152.421875 254.691406 152.90625 254.3125 153.035156 253.777344 L 161.363281 218.976562 C 161.449219 218.621094 161.363281 218.25 161.136719 217.957031 C 160.910156 217.667969 160.566406 217.503906 160.195312 217.503906 L 155.496094 217.503906 C 154.949219 217.503906 154.472656 217.878906 154.335938 218.40625 L 154.296875 218.566406 L 154.28125 218.640625 L 154.71875 218.71875 L 154.441406 218.371094 C 154.371094 218.421875 154.296875 218.527344 154.28125 218.640625 L 154.71875 218.71875 L 154.441406 218.371094 L 154.671875 218.664062 L 154.671875 218.289062 L 154.441406 218.371094 L 154.671875 218.664062 L 154.671875 218.289062 L 154.671875 218.835938 L 154.785156 218.304688 L 154.671875 218.289062 L 154.671875 218.835938 L 154.785156 218.304688 L 154.535156 219.472656 L 154.804688 218.308594 L 154.703125 218.734375 L 155.054688 218.46875 L 154.804688 218.308594 L 154.703125 218.734375 L 155.054688 218.46875 L 154.75 218.703125 L 155.136719 218.703125 L 155.054688 218.46875 L 154.75 218.703125 L 155.136719 218.703125 C 155.136719 218.378906 155.007812 218.082031 154.785156 217.855469 C 154.554688 217.628906 154.257812 217.503906 153.9375 217.503906 L 153.347656 217.503906 C 152.726562 217.503906 152.207031 217.980469 152.15625 218.605469 L 149.328125 253.402344 C 149.300781 253.734375 149.410156 254.0625 149.640625 254.308594 C 149.863281 254.550781 150.1875 254.691406 150.519531 254.691406 L 150.519531 253.496094 L 151.710938 253.59375 L 154.542969 218.796875 L 153.347656 218.703125 L 153.347656 219.898438 L 153.9375 219.898438 L 153.9375 218.703125 L 152.742188 218.703125 C 152.742188 219.144531 152.886719 219.566406 153.148438 219.917969 C 153.410156 220.261719 153.808594 220.539062 154.273438 220.640625 L 154.292969 220.644531 C 154.441406 220.679688 154.574219 220.683594 154.671875 220.683594 C 155.125 220.683594 155.550781 220.539062 155.90625 220.261719 C 156.261719 219.992188 156.542969 219.570312 156.636719 219.074219 L 155.457031 218.855469 L 156.617188 219.152344 L 156.660156 218.992188 L 155.496094 218.703125 L 155.496094 219.898438 L 158.679688 219.898438 L 150.925781 252.300781 L 150.519531 252.300781 L 150.519531 253.496094 L 151.710938 253.59375 L 150.519531 253.496094 " fill-opacity="1" fill-rule="nonzero"/><path fill="#231f20" d="M 166.910156 155.875 C 166.152344 155.453125 165.285156 155.175781 164.363281 155.136719 C 163.152344 155.070312 162 155.378906 161.023438 155.953125 L 159.574219 171.441406 L 163.699219 171.441406 L 166.910156 155.875 " fill-opacity="1" fill-rule="nonzero"/><path fill="#231f20" d="M 166.910156 155.875 L 167.484375 154.820312 C 166.589844 154.332031 165.546875 153.996094 164.417969 153.941406 L 164.425781 153.941406 C 164.296875 153.933594 164.164062 153.933594 164.039062 153.933594 C 162.726562 153.933594 161.480469 154.292969 160.417969 154.921875 C 160.085938 155.117188 159.867188 155.457031 159.835938 155.839844 L 158.378906 171.332031 C 158.347656 171.667969 158.460938 172 158.683594 172.246094 C 158.914062 172.5 159.230469 172.640625 159.574219 172.640625 L 163.699219 172.640625 C 164.265625 172.640625 164.753906 172.238281 164.867188 171.6875 L 168.085938 156.113281 C 168.191406 155.597656 167.949219 155.074219 167.484375 154.820312 L 166.910156 155.875 L 165.742188 155.628906 L 162.71875 170.246094 L 160.886719 170.246094 L 162.214844 156.066406 L 161.023438 155.953125 L 161.632812 156.980469 C 162.347656 156.566406 163.164062 156.328125 164.039062 156.328125 L 164.300781 156.332031 L 164.3125 156.332031 C 165.019531 156.363281 165.71875 156.578125 166.339844 156.921875 L 166.910156 155.875 L 165.742188 155.628906 L 166.910156 155.875 " fill-opacity="1" fill-rule="nonzero"/><path fill="#231f20" d="M 153.855469 212.472656 L 155.191406 212.472656 L 162.402344 177.683594 L 158.996094 177.683594 L 158.980469 177.710938 C 158.96875 177.910156 158.796875 178.074219 158.597656 178.074219 L 158.574219 178.054688 C 158.355469 178.042969 158.222656 177.875 158.222656 177.683594 L 156.703125 177.683594 L 153.855469 212.472656 " fill-opacity="1" fill-rule="nonzero"/><path fill="#231f20" d="M 153.855469 212.472656 L 153.855469 213.667969 L 155.191406 213.667969 C 155.757812 213.667969 156.25 213.265625 156.363281 212.714844 L 163.570312 177.925781 C 163.648438 177.574219 163.558594 177.210938 163.328125 176.929688 C 163.105469 176.648438 162.757812 176.492188 162.402344 176.492188 L 158.996094 176.492188 C 158.578125 176.492188 158.195312 176.707031 157.972656 177.066406 L 157.960938 177.089844 C 157.855469 177.257812 157.800781 177.441406 157.785156 177.636719 L 158.597656 177.6875 L 158.597656 176.878906 C 158.140625 176.894531 157.828125 177.191406 157.785156 177.636719 L 158.597656 177.6875 L 158.597656 176.878906 L 158.597656 178.074219 L 159.238281 177.066406 L 159.214844 177.046875 C 159.039062 176.941406 158.84375 176.875 158.644531 176.863281 L 158.589844 177.695312 L 159.214844 177.144531 C 159.078125 176.980469 158.84375 176.871094 158.644531 176.863281 L 158.589844 177.695312 L 159.214844 177.144531 L 158.601562 177.6875 L 159.417969 177.683594 C 159.417969 177.496094 159.351562 177.308594 159.214844 177.144531 L 158.601562 177.6875 L 159.417969 177.683594 C 159.417969 177.363281 159.296875 177.066406 159.066406 176.835938 C 158.84375 176.613281 158.542969 176.492188 158.222656 176.492188 L 156.703125 176.492188 C 156.074219 176.492188 155.554688 176.96875 155.507812 177.589844 L 152.660156 212.375 C 152.636719 212.707031 152.75 213.035156 152.976562 213.28125 C 153.203125 213.523438 153.523438 213.667969 153.855469 213.667969 L 153.855469 212.472656 L 155.050781 212.566406 L 157.804688 178.878906 L 158.222656 178.878906 L 158.222656 177.683594 L 157.023438 177.683594 C 157.023438 178.0625 157.160156 178.429688 157.417969 178.730469 C 157.675781 179.027344 158.085938 179.230469 158.496094 179.253906 L 158.574219 178.054688 L 157.925781 179.066406 L 157.949219 179.085938 C 158.148438 179.207031 158.367188 179.273438 158.597656 179.273438 C 159.453125 179.257812 160.105469 178.632812 160.175781 177.789062 L 158.980469 177.710938 L 160.003906 178.332031 L 160.023438 178.308594 L 158.996094 177.683594 L 158.996094 178.878906 L 160.929688 178.878906 L 154.21875 211.273438 L 153.855469 211.273438 L 153.855469 212.472656 L 155.050781 212.566406 L 153.855469 212.472656 " fill-opacity="1" fill-rule="nonzero"/></svg>