<svg xmlns="http://www.w3.org/2000/svg" xmlns:xlink="http://www.w3.org/1999/xlink" width="500" zoomAndPan="magnify" viewBox="0 0 375 374.999991" height="500" preserveAspectRatio="xMidYMid meet" version="1.0"><defs><filter x="0%" y="0%" width="100%" height="100%" id="54c89f2454"><feColorMatrix values="0 0 0 0 1 0 0 0 0 1 0 0 0 0 1 0 0 0 1 0" color-interpolation-filters="sRGB"/></filter><mask id="88c242118f"><g filter="url(#54c89f2454)"><rect x="-37.5" width="450" fill="#000000" y="-37.499999" height="449.999989" fill-opacity="0.7373"/></g></mask><clipPath id="7aeb0d6047"><path d="M 0.53125 0 L 316.28125 0 L 316.28125 375 L 0.53125 375 Z M 0.53125 0 " clip-rule="nonzero"/></clipPath><clipPath id="62093c8af4"><rect x="0" width="318" y="0" height="375"/></clipPath></defs><g mask="url(#88c242118f)"><g transform="matrix(1, 0, 0, 1, 29, 0)"><g clip-path="url(#62093c8af4)"><g clip-path="url(#7aeb0d6047)"><path fill="#000000" d="M 268.042969 26.460938 C 240.347656 9.152344 202.421875 0.00390625 158.359375 0.00390625 C 114.296875 0.00390625 76.371094 9.152344 48.679688 26.460938 C 17.160156 46.160156 0.496094 75.460938 0.496094 111.199219 C 0.496094 146.125 21.824219 209.1875 53.574219 268.132812 C 69.617188 297.917969 86.652344 323.230469 102.84375 341.324219 C 122.820312 363.667969 141.503906 374.992188 158.359375 374.992188 C 175.21875 374.992188 193.898438 363.667969 213.878906 341.324219 C 230.066406 323.230469 247.105469 297.917969 263.144531 268.132812 C 294.894531 209.1875 316.226562 146.125 316.226562 111.199219 C 316.226562 75.460938 299.5625 46.164062 268.042969 26.460938 Z M 268.042969 26.460938 " fill-opacity="1" fill-rule="nonzero"/></g></g></g></g></svg>