<svg xmlns="http://www.w3.org/2000/svg" xmlns:xlink="http://www.w3.org/1999/xlink" width="500" zoomAndPan="magnify" viewBox="0 0 375 374.999991" height="500" preserveAspectRatio="xMidYMid meet" version="1.0"><defs><clipPath id="603c7c99e1"><path d="M 29.53125 0 L 345.28125 0 L 345.28125 375 L 29.53125 375 Z M 29.53125 0 " clip-rule="nonzero"/></clipPath></defs><g clip-path="url(#603c7c99e1)"><path fill="#ffffff" d="M 297.042969 26.460938 C 269.347656 9.152344 231.421875 0.00390625 187.359375 0.00390625 C 143.296875 0.00390625 105.371094 9.152344 77.679688 26.460938 C 46.160156 46.160156 29.496094 75.460938 29.496094 111.199219 C 29.496094 146.125 50.824219 209.1875 82.574219 268.132812 C 98.617188 297.917969 115.652344 323.230469 131.84375 341.324219 C 151.820312 363.667969 170.503906 374.992188 187.359375 374.992188 C 204.21875 374.992188 222.898438 363.667969 242.878906 341.324219 C 259.066406 323.230469 276.105469 297.917969 292.144531 268.132812 C 323.894531 209.1875 345.226562 146.125 345.226562 111.199219 C 345.226562 75.460938 328.5625 46.164062 297.042969 26.460938 Z M 297.042969 26.460938 " fill-opacity="1" fill-rule="nonzero"/></g></svg>